<svg width="338" height="73" viewBox="0 0 338 73" fill="none" xmlns="http://www.w3.org/2000/svg">
<path d="M25 23.6667C25 17.0641 31.1603 12 39.2 12C47.2397 12 53.4 17.0641 53.4 23.6667C53.4 25.0128 52.7778 26.9258 51.6727 29.1996C50.5844 31.4387 49.0918 33.9018 47.4891 36.3063C44.303 41.0863 40.7359 45.554 39.2 47.4315C37.6641 45.554 34.097 41.0863 30.9109 36.3063C29.3082 33.9018 27.8156 31.4387 26.7273 29.1996C25.6222 26.9258 25 25.0128 25 23.6667Z" stroke="#222222" stroke-width="2" stroke-linejoin="round"/>
<path d="M43.2665 22.9999C43.2665 24.4493 41.6791 25.9999 39.1999 25.9999C36.7207 25.9999 35.1332 24.4493 35.1332 22.9999C35.1332 21.5504 36.7207 19.9999 39.1999 19.9999C41.6791 19.9999 43.2665 21.5504 43.2665 22.9999Z" fill="#E5E5E5" stroke="black" stroke-width="2"/>
<path d="M1 10C1 4.94128 5.72764 1 12 1C18.2724 1 23 4.94128 23 10C23 10.9893 22.5483 12.4227 21.7105 14.1664C20.8887 15.8769 19.756 17.7653 18.5267 19.6241C16.0849 23.3166 13.3158 26.8123 12 28.4287C10.6842 26.8123 7.91508 23.3166 5.47326 19.6241C4.24404 17.7653 3.11134 15.8769 2.28952 14.1664C1.45172 12.4227 1 10.9893 1 10Z" stroke="#222222" stroke-width="2" stroke-linejoin="round"/>
<path d="M14.9999 9.47393C14.9999 10.4583 13.89 11.6318 11.9999 11.6318C10.1099 11.6318 8.99994 10.4583 8.99994 9.47393C8.99994 8.48956 10.1099 7.31604 11.9999 7.31604C13.89 7.31604 14.9999 8.48956 14.9999 9.47393Z" fill="#E5E5E5" stroke="black" stroke-width="2"/>
<path d="M56.1719 29.25H64.4375C66.1667 29.25 67.651 29.5104 68.8906 30.0312C70.1302 30.5521 71.0833 31.3229 71.75 32.3438C72.4167 33.3646 72.75 34.6198 72.75 36.1094C72.75 37.2865 72.5417 38.3073 72.125 39.1719C71.7083 40.0365 71.1198 40.7604 70.3594 41.3438C69.6094 41.9271 68.724 42.3854 67.7031 42.7188L66.3594 43.4062H59.0625L59.0312 40.0156H64.4844C65.3698 40.0156 66.1042 39.8594 66.6875 39.5469C67.2708 39.2344 67.7083 38.8021 68 38.25C68.3021 37.6979 68.4531 37.0677 68.4531 36.3594C68.4531 35.599 68.3073 34.9427 68.0156 34.3906C67.724 33.8281 67.2812 33.3958 66.6875 33.0938C66.0938 32.7917 65.3438 32.6406 64.4375 32.6406H60.4688V52H56.1719V29.25ZM69.0156 52L63.75 41.8125L68.2969 41.7969L73.625 51.7812V52H69.0156ZM75.4688 43.7188V43.3906C75.4688 42.151 75.6458 41.0104 76 39.9688C76.3542 38.9167 76.8698 38.0052 77.5469 37.2344C78.224 36.4635 79.0521 35.8646 80.0312 35.4375C81.0104 35 82.125 34.7812 83.375 34.7812C84.6458 34.7812 85.7708 35 86.75 35.4375C87.7396 35.8646 88.5729 36.4635 89.25 37.2344C89.9271 38.0052 90.4427 38.9167 90.7969 39.9688C91.151 41.0104 91.3281 42.151 91.3281 43.3906V43.7188C91.3281 44.9479 91.151 46.0885 90.7969 47.1406C90.4427 48.1823 89.9271 49.0938 89.25 49.875C88.5729 50.6458 87.7448 51.2448 86.7656 51.6719C85.7865 52.099 84.6667 52.3125 83.4062 52.3125C82.1562 52.3125 81.0365 52.099 80.0469 51.6719C79.0573 51.2448 78.224 50.6458 77.5469 49.875C76.8698 49.0938 76.3542 48.1823 76 47.1406C75.6458 46.0885 75.4688 44.9479 75.4688 43.7188ZM79.5938 43.3906V43.7188C79.5938 44.4583 79.6667 45.151 79.8125 45.7969C79.9583 46.4427 80.1823 47.0104 80.4844 47.5C80.7865 47.9896 81.1771 48.375 81.6562 48.6562C82.1458 48.9271 82.7292 49.0625 83.4062 49.0625C84.0729 49.0625 84.6458 48.9271 85.125 48.6562C85.6042 48.375 85.9948 47.9896 86.2969 47.5C86.6094 47.0104 86.8385 46.4427 86.9844 45.7969C87.1302 45.151 87.2031 44.4583 87.2031 43.7188V43.3906C87.2031 42.6615 87.1302 41.9792 86.9844 41.3438C86.8385 40.6979 86.6094 40.1302 86.2969 39.6406C85.9948 39.1406 85.599 38.75 85.1094 38.4688C84.6302 38.1771 84.0521 38.0312 83.375 38.0312C82.7083 38.0312 82.1354 38.1771 81.6562 38.4688C81.1771 38.75 80.7865 39.1406 80.4844 39.6406C80.1823 40.1302 79.9583 40.6979 79.8125 41.3438C79.6667 41.9792 79.5938 42.6615 79.5938 43.3906ZM104.391 47.9844V35.0938H108.547V52H104.641L104.391 47.9844ZM104.922 44.4844L106.203 44.4531C106.203 45.5885 106.078 46.6354 105.828 47.5938C105.578 48.5521 105.188 49.3854 104.656 50.0938C104.135 50.7917 103.474 51.3385 102.672 51.7344C101.87 52.1198 100.922 52.3125 99.8281 52.3125C98.9948 52.3125 98.2344 52.1979 97.5469 51.9688C96.8594 51.7292 96.2656 51.3594 95.7656 50.8594C95.276 50.349 94.8958 49.6979 94.625 48.9062C94.3542 48.1042 94.2188 47.1406 94.2188 46.0156V35.0938H98.3438V46.0469C98.3438 46.6094 98.4062 47.0781 98.5312 47.4531C98.6667 47.8281 98.849 48.1354 99.0781 48.375C99.3177 48.6042 99.5938 48.7708 99.9062 48.875C100.229 48.9688 100.573 49.0156 100.938 49.0156C101.938 49.0156 102.724 48.8177 103.297 48.4219C103.88 48.0156 104.297 47.474 104.547 46.7969C104.797 46.1094 104.922 45.3385 104.922 44.4844ZM120.203 35.0938V38.0625H110.516V35.0938H120.203ZM113.109 30.9375H117.25V47.125C117.25 47.625 117.318 48.0104 117.453 48.2812C117.589 48.5521 117.792 48.7344 118.062 48.8281C118.333 48.9219 118.656 48.9688 119.031 48.9688C119.302 48.9688 119.552 48.9531 119.781 48.9219C120.01 48.8906 120.203 48.8594 120.359 48.8281L120.375 51.9219C120.031 52.0365 119.641 52.1302 119.203 52.2031C118.776 52.276 118.292 52.3125 117.75 52.3125C116.823 52.3125 116.01 52.1562 115.312 51.8438C114.615 51.5208 114.073 51.0052 113.688 50.2969C113.302 49.5781 113.109 48.6302 113.109 47.4531V30.9375ZM130.547 52.3125C129.266 52.3125 128.115 52.1042 127.094 51.6875C126.073 51.2708 125.203 50.6927 124.484 49.9531C123.776 49.2031 123.229 48.3333 122.844 47.3438C122.469 46.3438 122.281 45.2708 122.281 44.125V43.5C122.281 42.1979 122.469 41.0156 122.844 39.9531C123.219 38.8802 123.75 37.9583 124.438 37.1875C125.125 36.4167 125.948 35.8229 126.906 35.4062C127.865 34.9896 128.922 34.7812 130.078 34.7812C131.276 34.7812 132.333 34.9844 133.25 35.3906C134.167 35.7865 134.932 36.349 135.547 37.0781C136.161 37.8073 136.625 38.6823 136.938 39.7031C137.25 40.7135 137.406 41.8333 137.406 43.0625V44.7969H124.156V41.9531H133.344V41.6406C133.323 40.9844 133.198 40.3854 132.969 39.8438C132.74 39.2917 132.385 38.8542 131.906 38.5312C131.427 38.1979 130.807 38.0312 130.047 38.0312C129.432 38.0312 128.896 38.1667 128.438 38.4375C127.99 38.6979 127.615 39.0729 127.312 39.5625C127.021 40.0417 126.802 40.6146 126.656 41.2812C126.51 41.9479 126.438 42.6875 126.438 43.5V44.125C126.438 44.8333 126.531 45.4896 126.719 46.0938C126.917 46.6979 127.203 47.224 127.578 47.6719C127.964 48.1094 128.422 48.4531 128.953 48.7031C129.495 48.9427 130.109 49.0625 130.797 49.0625C131.661 49.0625 132.443 48.8958 133.141 48.5625C133.849 48.2188 134.464 47.7135 134.984 47.0469L137.062 49.2031C136.708 49.724 136.229 50.224 135.625 50.7031C135.031 51.1823 134.312 51.5729 133.469 51.875C132.625 52.1667 131.651 52.3125 130.547 52.3125Z" fill="black"/>
<path d="M146.078 47.6406L150.609 29.25H153.062L153.219 33.125L148.375 52H145.781L146.078 47.6406ZM143.219 29.25L146.938 47.5781V52H144.109L138.953 29.25H143.219ZM157.922 47.5L161.578 29.25H165.859L160.703 52H157.875L157.922 47.5ZM154.234 29.25L158.766 47.7031L159.031 52H156.438L151.609 33.1094L151.797 29.25H154.234ZM177.047 48.4062V40.6094C177.047 40.0365 176.948 39.5417 176.75 39.125C176.552 38.7083 176.25 38.3854 175.844 38.1562C175.438 37.9271 174.922 37.8125 174.297 37.8125C173.745 37.8125 173.26 37.9062 172.844 38.0938C172.438 38.2812 172.125 38.5469 171.906 38.8906C171.688 39.224 171.578 39.6094 171.578 40.0469H167.438C167.438 39.349 167.604 38.6875 167.938 38.0625C168.271 37.4271 168.745 36.8646 169.359 36.375C169.984 35.875 170.729 35.4844 171.594 35.2031C172.469 34.9219 173.448 34.7812 174.531 34.7812C175.812 34.7812 176.953 35 177.953 35.4375C178.964 35.8646 179.755 36.5104 180.328 37.375C180.911 38.2396 181.203 39.3281 181.203 40.6406V48.0156C181.203 48.8594 181.255 49.5833 181.359 50.1875C181.474 50.7812 181.641 51.2969 181.859 51.7344V52H177.656C177.458 51.5729 177.307 51.0312 177.203 50.375C177.099 49.7083 177.047 49.0521 177.047 48.4062ZM177.625 41.7031L177.656 44.1562H175.047C174.401 44.1562 173.833 44.224 173.344 44.3594C172.854 44.4844 172.453 44.6719 172.141 44.9219C171.828 45.1615 171.594 45.4531 171.438 45.7969C171.281 46.1302 171.203 46.5104 171.203 46.9375C171.203 47.3542 171.297 47.7292 171.484 48.0625C171.682 48.3958 171.964 48.6615 172.328 48.8594C172.703 49.0469 173.141 49.1406 173.641 49.1406C174.37 49.1406 175.005 48.9948 175.547 48.7031C176.089 48.401 176.51 48.0365 176.812 47.6094C177.115 47.1823 177.276 46.776 177.297 46.3906L178.484 48.1719C178.339 48.599 178.12 49.0521 177.828 49.5312C177.536 50.0104 177.161 50.4583 176.703 50.875C176.245 51.2917 175.693 51.6354 175.047 51.9062C174.401 52.1771 173.651 52.3125 172.797 52.3125C171.703 52.3125 170.724 52.0938 169.859 51.6562C168.995 51.2188 168.312 50.6198 167.812 49.8594C167.312 49.099 167.062 48.2344 167.062 47.2656C167.062 46.3698 167.229 45.5781 167.562 44.8906C167.896 44.2031 168.391 43.625 169.047 43.1562C169.703 42.6771 170.516 42.3177 171.484 42.0781C172.464 41.8281 173.583 41.7031 174.844 41.7031H177.625ZM189.297 28V52H185.156V28H189.297ZM197.609 28V52H193.469V28H197.609ZM209.141 52.3125C207.859 52.3125 206.708 52.1042 205.688 51.6875C204.667 51.2708 203.797 50.6927 203.078 49.9531C202.37 49.2031 201.823 48.3333 201.438 47.3438C201.062 46.3438 200.875 45.2708 200.875 44.125V43.5C200.875 42.1979 201.062 41.0156 201.438 39.9531C201.812 38.8802 202.344 37.9583 203.031 37.1875C203.719 36.4167 204.542 35.8229 205.5 35.4062C206.458 34.9896 207.516 34.7812 208.672 34.7812C209.87 34.7812 210.927 34.9844 211.844 35.3906C212.76 35.7865 213.526 36.349 214.141 37.0781C214.755 37.8073 215.219 38.6823 215.531 39.7031C215.844 40.7135 216 41.8333 216 43.0625V44.7969H202.75V41.9531H211.938V41.6406C211.917 40.9844 211.792 40.3854 211.562 39.8438C211.333 39.2917 210.979 38.8542 210.5 38.5312C210.021 38.1979 209.401 38.0312 208.641 38.0312C208.026 38.0312 207.49 38.1667 207.031 38.4375C206.583 38.6979 206.208 39.0729 205.906 39.5625C205.615 40.0417 205.396 40.6146 205.25 41.2812C205.104 41.9479 205.031 42.6875 205.031 43.5V44.125C205.031 44.8333 205.125 45.4896 205.312 46.0938C205.51 46.6979 205.797 47.224 206.172 47.6719C206.557 48.1094 207.016 48.4531 207.547 48.7031C208.089 48.9427 208.703 49.0625 209.391 49.0625C210.255 49.0625 211.036 48.8958 211.734 48.5625C212.443 48.2188 213.057 47.7135 213.578 47.0469L215.656 49.2031C215.302 49.724 214.823 50.224 214.219 50.7031C213.625 51.1823 212.906 51.5729 212.062 51.875C211.219 52.1667 210.245 52.3125 209.141 52.3125ZM226.766 35.0938V38.0625H217.078V35.0938H226.766ZM219.672 30.9375H223.812V47.125C223.812 47.625 223.88 48.0104 224.016 48.2812C224.151 48.5521 224.354 48.7344 224.625 48.8281C224.896 48.9219 225.219 48.9688 225.594 48.9688C225.865 48.9688 226.115 48.9531 226.344 48.9219C226.573 48.8906 226.766 48.8594 226.922 48.8281L226.938 51.9219C226.594 52.0365 226.203 52.1302 225.766 52.2031C225.339 52.276 224.854 52.3125 224.312 52.3125C223.385 52.3125 222.573 52.1562 221.875 51.8438C221.177 51.5208 220.635 51.0052 220.25 50.2969C219.865 49.5781 219.672 48.6302 219.672 47.4531V30.9375Z" fill="#1CB4E4"/>
<path d="M11.8374 33C9.83731 41.0004 14.3373 48.0004 27.8373 44.0002" stroke="black" stroke-width="2"/>
</svg>
